<svg xmlns="http://www.w3.org/2000/svg" >

  <symbol id="fb" viewBox="0 0 512 512">
    <path fill="#A7A7A7" style="fill: var(--first-color, #A7A7A7)"  d="M304,383c0,40.2-0.1,80.3,0.1,120.5c0,4.4-1.2,5.6-5.6,5.5c-34.2-0.2-68.3-0.2-102.5,0   c-4.7,0-6.2-1.1-6.2-6c0.2-79.7,0.1-159.3,0.1-239c0-8,0.9-7-7.3-7.1c-14.5,0-29-0.1-43.5,0.1c-3.5,0-4.5-1.1-4.5-4.6   c0.1-25.3,0.1-50.7,0-76c0-3.5,1-4.6,4.5-4.5c15.2,0.2,30.3-0.1,45.5,0.2c4.1,0.1,5.4-1,5.4-5.3c-0.2-21.3,0-42.7-0.1-64   c-0.1-17.7,2.6-34.8,11.5-50.4c9.6-17,24-28.7,41.8-36.3c15-6.4,30.8-9.4,47-10.3c32.1-1.8,64.3-0.3,96.4-0.9   c3.6-0.1,4.5,1.2,4.5,4.6c-0.1,26.3-0.1,52.7,0,79c0,4-1.5,4.6-5,4.6c-18.5-0.1-37-0.1-55.5-0.1c-15.4,0-26.5,11.1-26.5,26.3   c0,15.7,0.2,31.3-0.1,47c-0.1,4.5,1.4,5.6,5.7,5.6c25.3-0.2,50.7,0,76-0.2c4.2,0,5.6,1.2,5.1,5.4c-1.5,12.9-2.8,25.8-4.2,38.7   c-1.3,12.4-3.5,24.7-5.5,37c-0.6,3.5-1.7,4.3-4.9,4.3c-21.7-0.1-43.3-0.1-65,0c-8.5,0-7.3-1.1-7.3,7.5C304,304,304,343.5,304,383z" />
  </symbol>

  <symbol id="instagram" viewBox="0 0 512 512">
    <path fill="#A7A7A7" style="fill: var(--first-color, #A7A7A7)" d="M505,257c0,35.8,0.1,71.6,0,107.5c-0.2,52-24.4,90.5-67.6,117.7C412.1,498,384,505,354.2,505   c-65.2,0-130.3,0.3-195.5-0.1c-45.3-0.3-84.3-16.3-115.2-49.9c-19.1-20.8-30.5-45.3-33.8-73.6c-0.7-6-0.8-11.9-0.8-17.9   c0-71.3-0.1-142.6,0-213.9C9.2,97.5,33.4,59,76.6,31.8C102.1,15.9,130.3,9,160.3,9c65,0,130-0.3,195,0.1   c45.5,0.3,84.6,16.4,115.5,50.2c18.9,20.7,30.2,45.2,33.4,73.2c1.3,11,0.7,22,0.8,32.9C505.1,196,505,226.5,505,257z M46,257   c0,36.7-0.1,73.3,0,110c0.1,25.2,9.3,46.9,26.5,64.9c23.1,24.1,51.9,35.8,85,36c65.7,0.4,131.3,0.1,197,0.1   c21.2,0,41.4-4.6,59.8-15.2c34.4-19.7,53.8-48.7,53.8-89.3c0-72.2,0-144.3,0-216.5c0-25-9.1-46.6-26.2-64.5   c-22.9-24.2-51.8-36.1-84.8-36.3C290.7,45.7,224.4,46,158,46c-20.7,0-40.3,4.9-58.3,15.1C65.4,80.9,45.9,109.9,46,150.5   C46,186,46,221.5,46,257z" />
    <path fill="#A7A7A7" style="fill: var(--first-color, #A7A7A7)" d="M257.3,363c-64.6,0-116.4-51.6-116.3-116c0.1-62.7,52.6-114.1,116.7-114c64.4,0,116.4,51.7,116.3,115.5   C373.9,311.7,321.6,363,257.3,363z M257.3,326c43.9,0,79.7-34.9,79.7-77.8c0-43.1-35.5-78.2-79.3-78.2c-43.9,0-79.7,34.9-79.7,77.8   C178,290.9,213.5,326,257.3,326z" />
    <path fill="#A7A7A7" style="fill: var(--first-color, #A7A7A7)" d="M363,123.6c0-14.2,10.9-25.6,24.5-25.6c13.6,0,24.5,11.5,24.5,25.6c0,13.9-10.9,25.3-24.3,25.4   C374.1,149.1,363,137.8,363,123.6z" />
  </symbol>

  <symbol id="linkedin" viewBox="0 0 100 100">
    <path fill="#A7A7A7" style="fill: var(--first-color, #A7A7A7)" d="M92.768,41.873c-0.012-5.826,0.419-11.764,0.18-17.62c-0.117-2.899-0.18-17.445-0.18-17.445   c-2.975,0-7.061-0.047-9.987,0.181C75.108,7.586,5.91,6.95,5.91,6.95c-0.003,3.819,0,17.323,0,21.158   c0,8.002-0.123,15.69-0.182,23.633C5.626,65.488,5.91,79.464,5.91,92.938l1.589,0.081c3.631-0.428,6.285-0.019,9.717-0.081   c6.002-0.109,32.354,0.455,39.309,0.181c6.314-0.248,33.29,0.092,35.878,0.017c0,0,0.438-36.227,0.364-38.87   C92.651,50.083,92.775,46.01,92.768,41.873z M31.895,80.354l-13.072-0.068c-0.012-1.021,0.289-4.897,0.2-6.163   c-0.1-1.412-0.139-6.96-0.157-8.34c-0.016-1.378,0.091-7.525,0.124-9.241c0.044-2.294-0.042-4.588-0.042-6.882   c0-3.328,0-7.17,0-10.191c0,0,9.233-1.185,12.675,0l0.04,2.091c-0.005,1.159-0.018,5.775,0.027,6.903   c0.106,2.597,0.32,5.625,0.216,8.245c-0.102,2.616-0.041,6.228,0.027,8.791C32.083,71.14,31.98,75.036,31.895,80.354z    M20.011,31.436c-1.945-1.405-2.788-4.5-2.122-6.957c1.203-4.445,6.695-6.755,10.735-4.939   C38.453,23.958,29.714,38.444,20.011,31.436z M79.729,80.764l-12.675-0.136c0-7.774,0.137-21.193-0.134-23.798   c-0.27-2.605-1.269-5.094-2.01-5.81c-1.238-1.197-3.443-1.461-5.079-1.465c-4.411-0.011-7.155,3.339-7.36,5.928   c-0.205,2.59-0.219,16.428-0.068,18.603c0.103,1.476,0.068,6.678,0.068,6.678c-3.907,0-7.404,0-11.311,0h-1.226   c-0.014-5.398,0.297-11.4,0.068-17.104c-0.14-3.493-0.375-7.234-0.34-10.702c0.019-1.855-0.045-3.713,0-5.567   c0.044-1.844,0.136-8.056,0.136-8.056c2.459,0.037,4.607-0.08,6.473,0c2.158,0.091,3.86-0.021,5.877,0.126   c0.188,1.577-0.005,4.304,0.188,5.597c0,0,4.872-5.574,8.042-5.992c2.768-0.367,5.004-1.115,7.805-0.14   c3.428,1.194,6.181,2.425,8.714,5.175c0.888,0.964,1.815,2.124,2.014,3.432c0.32,2.101,0.32,2.101,0.409,3.107   c0.114,1.278,0.542,7.994,0.545,10.069C79.87,63.077,78.958,79.098,79.729,80.764z"/>
  </symbol>

  <symbol id="pinterest" viewBox="0 0 1200 1200">
    <path fill="#A7A7A7" style="fill: var(--first-color, #A7A7A7)" d="M600,0c356.454,6.666,597.673,280.025,600,600
      c-6.375,340.923-280.025,597.673-600,600c-59.191-0.229-116.981-9.442-169.763-24.622c11.231-18.143,22.462-38.229,33.693-60.259
      c23.687-48.151,34.503-99.721,46.652-149.028c5.184-21.166,12.527-49.028,22.03-83.585c10.367,19.87,29.158,37.148,56.372,51.835
      c71.035,34.562,159.039,23.144,222.246-9.071c88.677-50.368,140.639-128.602,168.467-216.414
      c53.582-203.642-15.509-399.439-200.217-478.186c-222.715-67.084-471.269,16.639-557.883,215.767
      c-37.816,133.073-35.578,303.927,95.896,359.611c6.915,2.592,13.178,2.592,18.79,0c12.34-7.05,26.651-68.155,23.975-80.993
      c-0.864-3.888-3.888-9.288-9.071-16.199c-72.663-98.369-28.379-244.762,39.524-318.143
      c115.467-99.179,295.177-115.283,401.08-20.734c93.934,109.583,72.6,280.129,12.311,388.769
      c-33.313,53.126-78,93.273-138.013,93.952c-63.17-1.398-110.815-54.853-94.601-115.334c13.78-70.979,52.015-146.255,53.132-212.527
      c-3.053-55.122-30.656-90.083-81.642-90.713c-81.388,10.263-114.243,86.357-115.335,155.508c2.602,33.23,4.618,67.053,19.438,94.601
      c-17.278,69.979-30.67,126.35-40.173,169.114c-14.567,75.874-43.132,155.23-47.3,228.726c-1.296,24.19-1.513,46.652-0.648,67.387
      C136.638,1044.027,1.314,838.081,0,600C6.476,253.707,280.025,2.327,600,0L600,0z"/>
  </symbol>

  <symbol id="twitter" viewBox="0 0 512 512">
    <path fill="#A7A7A7" style="fill: var(--first-color, #A7A7A7)" d="M3.5,421.4c56,5.1,106.1-8.9,151.5-42.9c-7-1.6-13.4-1.6-19.5-3.1c-35.7-8.5-60.4-30-74.9-63.5   c-0.7-1.7-2.5-3.8-0.9-5.5c1.2-1.3,3.5-0.2,5.2,0c12.6,1.3,25.2,0.9,37.6-2c0.2-2.2-1.4-2-2.6-2.4c-30.7-8.2-53-26.5-67.4-54.8   c-6.6-13-10.2-26.6-10.6-41.2c-0.2-5.7,0.1-5.8,5.4-3.3c12.6,6,25.8,9.4,40.9,10.1c-6.9-5.6-13.1-10.5-18.4-16.4   c-16.1-17.9-25.1-38.8-27-62.9c-1.5-19.6,2.6-37.9,11.1-55.5c1.9-3.9,3.6-3.6,6-0.7C56.6,97.7,76.1,115,97.6,130   c16,11.2,33,20.5,50.9,28.4c23.6,10.3,48.1,17.2,73.5,21.3c8,1.3,16.2,1.6,24.3,2.4c4.1,0.4,5.2-0.8,4.4-5   c-4.1-21.6-1.3-42.6,8.1-62.3c16.1-33.6,43.1-54,79.8-59.4c32.6-4.8,61.9,4.5,86.2,27.4c3.7,3.5,7,4.4,12,3.1   c19.6-5,38.3-12.1,55.9-22.1c0.5-0.3,1.1-0.4,2.9-1.1c-8.2,24.1-22.7,41.9-43,55.5c4.7,0.9,18.6-1.6,28.2-4.6   c9.2-2.9,18.4-5.5,27.2-9.4c1.2,1.3,0.1,2-0.4,2.7c-11.7,16.5-25.1,31.4-41.1,43.8c-2.2,1.7-4.3,3.6-6.6,5.2   c-1.7,1.2-1.8,2.7-1.7,4.4c0.7,18.2-0.6,36.3-3.2,54.2c-2.7,18.3-7.3,36.1-13.4,53.6c-5,14.3-10.9,28.2-17.9,41.7   c-17.3,33.2-39.8,62.4-67.9,87.3c-29.9,26.4-63.9,45.4-101.9,57.2c-23.7,7.4-48,11.7-72.9,13c-19.2,1-38.3,0.7-57.3-1.7   c-27.2-3.3-53.4-10.7-78.6-21.5c-12.9-5.5-25.1-12.1-37.3-19C6.1,424.4,4.4,423.6,3.5,421.4z" />
  </symbol>

  <symbol id="youtube" viewBox="0 0 512 512">
    <path fill="#A7A7A7" style="fill: var(--first-color, #A7A7A7)" d="M256.4,74.2c22.7,0,45.3-0.4,68,0.1c28.8,0.6,57.6,1.7,86.3,3c11.9,0.6,24,0.9,35.8,3.2   c28.1,5.4,44.8,22.7,52.5,50c4.1,14.5,5.6,29.4,6.9,44.3c3.5,40.1,2.8,80.2,1.8,120.3c-0.6,23.7-1.6,47.6-7.6,70.8   c-2.5,9.5-5.4,19-10.9,27.3c-10,15.1-24.4,23.7-42,26.9c-15.1,2.8-30.4,3.1-45.7,3.8c-28.3,1.3-56.6,1.9-84.9,2.6   c-33.5,0.9-67,0.7-100.4,0.4c-27.1-0.3-54.3-0.9-81.4-2c-22.9-0.9-45.9-1.3-68.5-5.7c-12.5-2.4-23.6-7.6-33.2-16.2   c-9-8.2-13.6-18.8-17-30c-7.3-24-7.8-48.8-9.3-73.6c-1.7-29-1.2-58-0.5-86.9c0.6-24.4,1.7-48.9,6.8-72.9c3-14.2,7.1-28.3,17.4-39.2   c12.7-13.4,28.9-19.8,47.2-21.1c21.9-1.5,43.9-2.5,65.8-3.4C181.1,74.3,218.8,73.8,256.4,74.2z M339.5,245.4   c-0.4-1.2-1.5-1.4-2.3-1.8c-23.5-12.4-47.1-24.8-70.7-37.2c-18.7-9.8-37.4-19.7-56.1-29.6c-5.2-2.7-5.3-2.6-5.3,3.4   c0,43.1,0,86.2,0,129.4c0,0.8,0,1.7,0,2.5c-0.1,2.6,0.9,3.4,3.3,2.1c2.9-1.6,5.8-3.2,8.8-4.8c39.4-20.4,78.9-40.9,118.3-61.3   C336.9,247.3,338.7,247,339.5,245.4z"/>
  </symbol>
</svg>